<!-- SVG Sprite -->
<svg width="0" height="0" class="hidden">
  <symbol version="1.1" id="button-1-play" xmlns="http://www.w3.org/2000/svg" xmlns:xlink="http://www.w3.org/1999/xlink" x="0px" y="0px" xml:space="preserve" viewBox="0 0 512.208 512.208">
    <g>
      <g>
        <path d="M52.832,0v512.208l406.544-256.096L52.832,0z M68.832,29.008l360.512,227.104L68.832,483.216V29.008z"></path>
      </g>
    </g>
    <g></g>
    <g></g>
    <g></g>
    <g></g>
    <g></g>
    <g></g>
    <g></g>
    <g></g>
    <g></g>
    <g></g>
    <g></g>
    <g></g>
    <g></g>
    <g></g>
    <g></g>
  </symbol>

  <symbol version="1.1" id="button-2-play" xmlns="http://www.w3.org/2000/svg" xmlns:xlink="http://www.w3.org/1999/xlink" x="0px" y="0px" xml:space="preserve" viewBox="0 0 490 490">
    <path d="M0.665,0v490l488.669-245L0.665,0z M15.977,24.806L455.183,245L15.977,465.208V24.806z"></path>
    <g></g>
    <g></g>
    <g></g>
    <g></g>
    <g></g>
    <g></g>
    <g></g>
    <g></g>
    <g></g>
    <g></g>
    <g></g>
    <g></g>
    <g></g>
    <g></g>
    <g></g>
  </symbol>
  <symbol version="1.1" id="button-3-play" xmlns="http://www.w3.org/2000/svg" xmlns:xlink="http://www.w3.org/1999/xlink" x="0px" y="0px" xml:space="preserve" viewBox="0 0 155.908 155.908">
    <g>
      <path d="M143.878,58.015L46.02,6.45c-9.816-5.172-21.348-4.838-30.848,0.894C5.672,13.076,0,23.122,0,34.218v87.473
		c0,11.096,5.672,21.142,15.172,26.874c5.018,3.028,10.601,4.549,16.2,4.549c5.001,0,10.016-1.215,14.647-3.655l97.858-51.566
		c7.42-3.91,12.03-11.55,12.03-19.938S151.298,61.926,143.878,58.015z M135.486,81.968l-97.858,51.566
		c-4.249,2.239-9.045,2.101-13.157-0.381C20.358,130.671,18,126.493,18,121.69V34.218c0-4.803,2.358-8.981,6.471-11.462
		c2.169-1.309,4.529-1.966,6.898-1.966c2.122,0,4.251,0.527,6.259,1.585l97.858,51.565c2.186,1.152,2.422,3.191,2.422,4.014
		S137.672,80.816,135.486,81.968z"></path>
    </g>
    <g></g>
    <g></g>
    <g></g>
    <g></g>
    <g></g>
    <g></g>
    <g></g>
    <g></g>
    <g></g>
    <g></g>
    <g></g>
    <g></g>
    <g></g>
    <g></g>
    <g></g>
  </symbol>
  <symbol version="1.1" id="button-4-play" xmlns="http://www.w3.org/2000/svg" xmlns:xlink="http://www.w3.org/1999/xlink" x="0px" y="0px" xml:space="preserve" viewBox="0 0 60 60">
    <g>
      <path d="M45.563,29.174l-22-15c-0.307-0.208-0.703-0.231-1.031-0.058C22.205,14.289,22,14.629,22,15v30
		c0,0.371,0.205,0.711,0.533,0.884C22.679,45.962,22.84,46,23,46c0.197,0,0.394-0.059,0.563-0.174l22-15
		C45.836,30.64,46,30.331,46,30S45.836,29.36,45.563,29.174z M24,43.107V16.893L43.225,30L24,43.107z"></path>
      <path d="M30,0C13.458,0,0,13.458,0,30s13.458,30,30,30s30-13.458,30-30S46.542,0,30,0z M30,58C14.561,58,2,45.439,2,30
		S14.561,2,30,2s28,12.561,28,28S45.439,58,30,58z"></path>
    </g>
    <g></g>
    <g></g>
    <g></g>
    <g></g>
    <g></g>
    <g></g>
    <g></g>
    <g></g>
    <g></g>
    <g></g>
    <g></g>
    <g></g>
    <g></g>
    <g></g>
    <g></g>
  </symbol>
  <symbol version="1.1" id="button-5-play" xmlns="http://www.w3.org/2000/svg" xmlns:xlink="http://www.w3.org/1999/xlink" x="0px" y="0px" xml:space="preserve" viewBox="0 0 98.461 98.461">
    <g>
      <g>
        <path d="M49.232,30.786c-16.429,0-29.797,13.367-29.797,29.798c0,16.425,13.368,29.793,29.797,29.793
			c16.428,0,29.793-13.368,29.793-29.793C79.025,44.153,65.66,30.786,49.232,30.786z M49.232,83.77
			c-12.788,0-23.189-10.399-23.189-23.187c0-12.792,10.401-23.192,23.189-23.192c12.784,0,23.187,10.4,23.187,23.192
			C72.419,73.37,62.016,83.77,49.232,83.77z"></path>
        <path d="M78.501,23.136c-0.546-0.039-1.046-0.318-1.366-0.762c-4.001-5.549-10.518-8.981-17.457-8.981
			c-0.503,0-1.007,0.018-1.509,0.053c-0.45,0.031-0.896-0.103-1.253-0.378c-4.204-3.231-9.322-4.984-14.687-4.984
			c-9.586,0-18.083,5.619-21.952,14.1c-0.266,0.583-0.816,0.985-1.452,1.065C8.227,24.573,0,33.638,0,44.589
			c0,9.854,6.672,18.164,15.73,20.696c-0.215-1.538-0.334-3.105-0.334-4.702c0-1.476,0.104-2.925,0.289-4.351
			c-4.268-2.145-7.211-6.55-7.211-11.645c0-7.188,5.847-13.034,13.034-13.034c0.364,0,0.721,0.029,1.077,0.059
			c2.071,0.158,3.946-1.185,4.45-3.192c1.754-6.984,8.001-11.864,15.195-11.864c4.109,0,8,1.588,10.952,4.47
			c1.01,0.984,2.442,1.403,3.825,1.115c0.879-0.183,1.776-0.275,2.673-0.275c5.032,0,9.525,2.829,11.729,7.382
			c0.773,1.601,2.466,2.556,4.234,2.373c0.441-0.044,0.881-0.066,1.309-0.066c7.187,0,13.035,5.847,13.035,13.034
			c0,5.093-2.942,9.499-7.211,11.645c0.186,1.426,0.291,2.875,0.291,4.351c0,1.597-0.121,3.164-0.334,4.702
			c9.058-2.533,15.729-10.842,15.729-20.696C98.459,33.252,89.639,23.934,78.501,23.136z"></path>
        <path d="M60.967,57.906l-14.848-9.388c-0.975-0.617-2.208-0.653-3.219-0.098c-1.01,0.558-1.638,1.619-1.638,2.771v18.776
			c0,1.153,0.627,2.216,1.638,2.772c1.01,0.556,2.244,0.52,3.219-0.098l14.848-9.389c0.917-0.58,1.473-1.59,1.473-2.675
			C62.439,59.496,61.884,58.486,60.967,57.906z"></path>
      </g>
    </g>
    <g></g>
    <g></g>
    <g></g>
    <g></g>
    <g></g>
    <g></g>
    <g></g>
    <g></g>
    <g></g>
    <g></g>
    <g></g>
    <g></g>
    <g></g>
    <g></g>
    <g></g>
  </symbol>
  <symbol version="1.1" id="button-6-play" xmlns="http://www.w3.org/2000/svg" xmlns:xlink="http://www.w3.org/1999/xlink" x="0px" y="0px" xml:space="preserve" viewBox="0 0 191.255 191.255">
    <path d="M162.929,66.612c-2.814-1.754-6.514-0.896-8.267,1.917s-0.895,6.513,1.917,8.266c6.544,4.081,10.45,11.121,10.45,18.833
	s-3.906,14.752-10.45,18.833l-98.417,61.365c-6.943,4.329-15.359,4.542-22.512,0.573c-7.154-3.97-11.425-11.225-11.425-19.406
	V34.262c0-8.181,4.271-15.436,11.425-19.406c7.153-3.969,15.569-3.756,22.512,0.573l57.292,35.723
	c2.813,1.752,6.513,0.895,8.267-1.917c1.753-2.812,0.895-6.513-1.917-8.266L64.512,5.247c-10.696-6.669-23.661-7-34.685-0.883
	C18.806,10.48,12.226,21.657,12.226,34.262v122.73c0,12.605,6.58,23.782,17.602,29.898c5.25,2.913,10.939,4.364,16.616,4.364
	c6.241,0,12.467-1.754,18.068-5.247l98.417-61.365c10.082-6.287,16.101-17.133,16.101-29.015S173.011,72.899,162.929,66.612z"></path>
    <g></g>
    <g></g>
    <g></g>
    <g></g>
    <g></g>
    <g></g>
    <g></g>
    <g></g>
    <g></g>
    <g></g>
    <g></g>
    <g></g>
    <g></g>
    <g></g>
    <g></g>
  </symbol>
  <symbol version="1.1" id="button-7-play" xmlns="http://www.w3.org/2000/svg" xmlns:xlink="http://www.w3.org/1999/xlink" x="0px" y="0px" xml:space="preserve" viewBox="0 0 184.53 184.53">
    <path d="M173.771,180.652H16.404c-5.932,0-10.758-4.826-10.758-10.758V75.371L2.603,61.716C2.602,61.71,2.6,61.705,2.599,61.7
	L0.261,51.207c-0.625-2.805-0.121-5.685,1.421-8.11c1.541-2.425,3.935-4.105,6.739-4.73l153.6-34.229
	c5.785-1.29,11.55,2.371,12.841,8.16v0.001l5.413,24.292c0.24,1.078-0.439,2.146-1.518,2.387L25.797,73.064H182.53
	c1.104,0,2,0.896,2,2v94.83C184.53,175.826,179.704,180.652,173.771,180.652z M9.646,91.268v78.626c0,3.727,3.031,6.758,6.758,6.758
	h157.367c3.727,0,6.759-3.031,6.759-6.758V91.268H9.646z M164.371,87.268h16.159V77.064h-5.955L164.371,87.268z M133.991,87.268
	h24.723l10.204-10.204h-24.723L133.991,87.268z M103.612,87.268h24.723l10.204-10.204h-24.723L103.612,87.268z M73.233,87.268
	h24.723l10.204-10.204H83.437L73.233,87.268z M42.854,87.268h24.723l10.204-10.204H53.058L42.854,87.268z M12.474,87.268h24.723
	l10.204-10.204H22.678L12.474,87.268z M9.646,77.064v7.376l7.376-7.376H9.646z M7.555,65.551l1.589,7.126l7.125-1.589L7.555,65.551z
	 M9.701,62.175l12.09,7.684l24.131-5.378l-12.091-7.684L9.701,62.175z M39.352,55.567l12.091,7.684l24.131-5.377l-12.09-7.684
	L39.352,55.567z M164.361,7.879c-0.485,0-0.978,0.053-1.471,0.162L9.292,42.271c-1.762,0.393-3.266,1.448-4.233,2.972
	c-0.969,1.523-1.285,3.333-0.893,5.095l1.905,8.549l57.325-12.775c0.018-0.004,0.034-0.008,0.052-0.012l59.24-13.201
	c0.024-0.006,0.051-0.012,0.076-0.017l29.592-6.595c0.014-0.003,0.028-0.007,0.042-0.01l20.465-4.561l-1.905-8.549v0.001
	C170.257,10.024,167.457,7.879,164.361,7.879z M69.006,48.959l12.089,7.684l24.13-5.378l-12.09-7.684L69.006,48.959z M98.656,42.351
	l12.09,7.684l24.132-5.377l-12.09-7.684L98.656,42.351z M128.309,35.743l12.09,7.684l24.13-5.377l-12.09-7.684L128.309,35.743z
	 M157.96,29.136l12.09,7.684l5.887-1.312l-2.203-9.888L157.96,29.136z M95.088,160.258c-15.795,0-28.646-12.851-28.646-28.646
	s12.851-28.646,28.646-28.646c15.796,0,28.646,12.851,28.646,28.646S110.884,160.258,95.088,160.258z M95.088,106.967
	c-13.59,0-24.646,11.056-24.646,24.646s11.056,24.646,24.646,24.646s24.646-11.056,24.646-24.646S108.677,106.967,95.088,106.967z
	 M86.847,145.352c-0.346,0-0.69-0.089-1-0.268c-0.619-0.357-1-1.018-1-1.732v-23.479c0-0.715,0.381-1.375,1-1.732s1.381-0.357,2,0
	l20.333,11.739c0.619,0.357,1,1.018,1,1.732s-0.381,1.375-1,1.732l-20.333,11.739C87.538,145.263,87.193,145.352,86.847,145.352z
	 M88.847,123.337v16.551l14.333-8.275L88.847,123.337z M168.574,133.613h-33.688c-1.104,0-2-0.896-2-2s0.896-2,2-2h33.688
	c1.104,0,2,0.896,2,2S169.678,133.613,168.574,133.613z M55.03,133.613H21.341c-1.104,0-2-0.896-2-2s0.896-2,2-2H55.03
	c1.104,0,2,0.896,2,2S56.135,133.613,55.03,133.613z"></path>
    <g></g>
    <g></g>
    <g></g>
    <g></g>
    <g></g>
    <g></g>
    <g></g>
    <g></g>
    <g></g>
    <g></g>
    <g></g>
    <g></g>
    <g></g>
    <g></g>
    <g></g>
  </symbol>
  <symbol xmlns="http://www.w3.org/2000/svg" viewBox="0 0 15 15" id="button-8-play">
    <path d="M4.5 12.5V2.5L11.5 7.5L4.5 12.5Z"  stroke-linejoin="round"></path>
  </symbol>
  <symbol version="1.1" id="button-9-play" xmlns="http://www.w3.org/2000/svg" xmlns:xlink="http://www.w3.org/1999/xlink" x="0px" y="0px" xml:space="preserve" viewBox="0 0 502 502">
    <g>
      <g>
        <path d="M251,502c-67.045,0-130.076-26.108-177.483-73.516C26.108,381.076,0,318.044,0,251S26.108,120.924,73.517,73.516
			C120.924,26.108,183.955,0,251,0s130.076,26.108,177.483,73.516C475.892,120.924,502,183.956,502,251
			s-26.108,130.076-73.517,177.484C381.076,475.892,318.045,502,251,502z M251,20C123.626,20,20,123.626,20,251s103.626,231,231,231
			s231-103.626,231-231S378.374,20,251,20z"></path>
      </g>
      <g>
        <g>
          <path d="M194.134,401c-5.627,0-11.23-1.394-16.204-4.03c-11.344-6.015-18.391-17.728-18.391-30.567V135.597
				c0-12.839,7.047-24.552,18.39-30.566c11.343-6.013,24.992-5.276,35.62,1.93L383.78,222.363
				c9.508,6.445,15.184,17.151,15.184,28.637c0,11.485-5.676,22.191-15.184,28.637L213.549,395.04
				C207.799,398.939,201.085,401,194.134,401z M194.138,120.995c-2.341,0-4.688,0.564-6.84,1.706
				c-4.786,2.538-7.759,7.479-7.759,12.896v230.806c0,5.417,2.973,10.359,7.759,12.896c2.099,1.112,4.463,1.701,6.836,1.701
				c2.934,0,5.766-0.869,8.191-2.514l170.232-115.403c4.011-2.72,6.406-7.236,6.406-12.083s-2.395-9.363-6.406-12.082
				L202.326,123.515C199.858,121.842,197.004,120.995,194.138,120.995z"></path>
        </g>
      </g>
      <g>
        <path d="M286.012,63.038c-0.574,0-1.156-0.049-1.741-0.152c-21.184-3.718-43.425-3.829-64.641-0.324
			c-5.453,0.903-10.597-2.787-11.496-8.236c-0.9-5.449,2.787-10.596,8.236-11.496c23.431-3.871,47.965-3.75,71.359,0.358
			c5.439,0.955,9.075,6.139,8.12,11.579C294.997,59.621,290.776,63.038,286.012,63.038z"></path>
      </g>
      <g>
        <path d="M439.844,192.001c-4.08,0-7.911-2.516-9.394-6.57c-16.37-44.791-48.719-81.657-91.086-103.808
			c-4.895-2.559-6.788-8.601-4.229-13.495c2.56-4.895,8.601-6.788,13.495-4.229c46.792,24.464,82.521,65.186,100.605,114.666
			c1.896,5.187-0.772,10.929-5.96,12.825C442.143,191.804,440.983,192.001,439.844,192.001z"></path>
      </g>
    </g>
    <g></g>
    <g></g>
    <g></g>
    <g></g>
    <g></g>
    <g></g>
    <g></g>
    <g></g>
    <g></g>
    <g></g>
    <g></g>
    <g></g>
    <g></g>
    <g></g>
    <g></g>
  </symbol>
  <symbol version="1.1" id="button-10-play" xmlns="http://www.w3.org/2000/svg" xmlns:xlink="http://www.w3.org/1999/xlink" x="0px" y="0px" xml:space="preserve" viewBox="0 0 512 512">
    <g>
      <g>
        <path d="M435.078,209.327L140.047,9.81c-17.57-11.883-39.249-13.04-57.984-3.092c-18.737,9.948-29.922,28.551-29.922,49.764
			v399.034c0,21.213,11.186,39.816,29.922,49.764C90.52,509.772,99.577,512,108.585,512c10.948,0,21.824-3.292,31.463-9.81
			l295.03-199.516c15.517-10.494,24.781-27.941,24.781-46.673S450.595,219.821,435.078,209.327z M423.654,285.78L128.624,485.297
			c-11.212,7.582-25.043,8.322-36.997,1.973c-11.956-6.347-19.092-18.218-19.092-31.753V56.484c0-13.535,7.137-25.405,19.092-31.753
			c5.396-2.865,11.175-4.287,16.923-4.287c6.985,0,13.924,2.099,20.075,6.259l295.03,199.517
			c10.049,6.795,15.811,17.65,15.811,29.78C439.466,268.13,433.702,278.985,423.654,285.78z"></path>
      </g>
    </g>
    <g>
      <g>
        <path d="M363.689,201.673l-16.555-11.219c-4.663-3.158-11.001-1.942-14.162,2.72c-3.16,4.662-1.94,11.002,2.721,14.161
			l16.555,11.22c1.754,1.188,3.742,1.757,5.712,1.757c3.268,0,6.478-1.568,8.45-4.477
			C369.57,211.172,368.35,204.832,363.689,201.673z"></path>
      </g>
    </g>
    <g>
      <g>
        <path d="M315.764,169.195L116.927,34.445c-4.663-3.158-11.001-1.941-14.162,2.721c-3.16,4.662-1.94,11.001,2.721,14.161
			l198.837,134.75c1.754,1.188,3.742,1.757,5.712,1.757c3.268,0,6.478-1.568,8.45-4.477
			C321.645,178.694,320.425,172.355,315.764,169.195z"></path>
      </g>
    </g>
    <g></g>
    <g></g>
    <g></g>
    <g></g>
    <g></g>
    <g></g>
    <g></g>
    <g></g>
    <g></g>
    <g></g>
    <g></g>
    <g></g>
    <g></g>
    <g></g>
    <g></g>
  </symbol>
   <symbol id="button-1-volume" viewBox="0 0 18 18">
    <path d="M15.6 3.3c-.4-.4-1-.4-1.4 0-.4.4-.4 1 0 1.4C15.4 5.9 16 7.4 16 9c0 1.6-.6 3.1-1.8 4.3-.4.4-.4 1 0 1.4.2.2.5.3.7.3.3 0 .5-.1.7-.3C17.1 13.2 18 11.2 18 9s-.9-4.2-2.4-5.7z" />
    <path d="M11.282 5.282a.909.909 0 000 1.316c.735.735.995 1.458.995 2.402 0 .936-.425 1.917-.995 2.487a.909.909 0 000 1.316c.145.145.636.262 1.018.156a.725.725 0 00.298-.156C13.773 11.733 14.13 10.16 14.13 9c0-.17-.002-.34-.011-.51-.053-.992-.319-2.005-1.522-3.208a.909.909 0 00-1.316 0zm-7.496.726H.714C.286 6.008 0 6.31 0 6.76v4.512c0 .452.286.752.714.752h3.072l4.071 3.858c.5.3 1.143 0 1.143-.602V2.752c0-.601-.643-.977-1.143-.601L3.786 6.008z" />
  </symbol>
  <symbol id="button-1-muted" viewBox="0 0 18 18">
    <path d="M12.4 12.5l2.1-2.1 2.1 2.1 1.4-1.4L15.9 9 18 6.9l-1.4-1.4-2.1 2.1-2.1-2.1L11 6.9 13.1 9 11 11.1zM3.786 6.008H.714C.286 6.008 0 6.31 0 6.76v4.512c0 .452.286.752.714.752h3.072l4.071 3.858c.5.3 1.143 0 1.143-.602V2.752c0-.601-.643-.977-1.143-.601L3.786 6.008z" />
  </symbol>
  <symbol id="button-1-enter-fullscreen" viewBox="0 0 18 18">
    <path d="M10 3h3.6l-4 4L11 8.4l4-4V8h2V1h-7zM7 9.6l-4 4V10H1v7h7v-2H4.4l4-4z" />
  </symbol>
    <symbol xmlns="http://www.w3.org/2000/svg" viewBox="0 0 18 18" id="button-1-settings">
    <path d="M16.135,7.784 C14.832,7.458 14.214,5.966 14.905,4.815 C15.227,4.279 15.13,3.817 14.811,3.499 L14.501,3.189 C14.183,2.871 13.721,2.774 13.185,3.095 C12.033,3.786 10.541,3.168 10.216,1.865 C10.065,1.258 9.669,1 9.219,1 L8.781,1 C8.331,1 7.936,1.258 7.784,1.865 C7.458,3.168 5.966,3.786 4.815,3.095 C4.279,2.773 3.816,2.87 3.498,3.188 L3.188,3.498 C2.87,3.816 2.773,4.279 3.095,4.815 C3.786,5.967 3.168,7.459 1.865,7.784 C1.26,7.935 1,8.33 1,8.781 L1,9.219 C1,9.669 1.258,10.064 1.865,10.216 C3.168,10.542 3.786,12.034 3.095,13.185 C2.773,13.721 2.87,14.183 3.189,14.501 L3.499,14.811 C3.818,15.13 4.281,15.226 4.815,14.905 C5.967,14.214 7.459,14.832 7.784,16.135 C7.935,16.742 8.331,17 8.781,17 L9.219,17 C9.669,17 10.064,16.742 10.216,16.135 C10.542,14.832 12.034,14.214 13.185,14.905 C13.72,15.226 14.182,15.13 14.501,14.811 L14.811,14.501 C15.129,14.183 15.226,13.72 14.905,13.185 C14.214,12.033 14.832,10.541 16.135,10.216 C16.742,10.065 17,9.669 17,9.219 L17,8.781 C17,8.33 16.74,7.935 16.135,7.784 L16.135,7.784 Z M9,12 C7.343,12 6,10.657 6,9 C6,7.343 7.343,6 9,6 C10.657,6 12,7.343 12,9 C12,10.657 10.657,12 9,12 L9,12 Z"></path>
  </symbol>
  <symbol id="button-1-exit-fullscreen" viewBox="0 0 18 18">
    <path d="M1 12h3.6l-4 4L2 17.4l4-4V17h2v-7H1zM16 .6l-4 4V1h-2v7h7V6h-3.6l4-4z" />
  </symbol>
</svg>