<!-- SVG Sprite -->
<svg width="0" height="0" class="hidden">
  <symbol xmlns="http://www.w3.org/2000/svg" viewBox="0 0 18 18" id="button-1-fullscreen">
    <polygon points="10 3 13.6 3 9.6 7 11 8.4 15 4.4 15 8 17 8 17 1 10 1"></polygon>
    <polygon points="7 9.6 3 13.6 3 10 1 10 1 17 8 17 8 15 4.4 15 8.4 11"></polygon>
  </symbol>
  <symbol version="1.1" id="button-1-play" xmlns="http://www.w3.org/2000/svg" xmlns:xlink="http://www.w3.org/1999/xlink" x="0px" y="0px" xml:space="preserve" viewBox="0 0 512.208 512.208">
    <g>
      <g>
        <path d="M52.832,0v512.208l406.544-256.096L52.832,0z M68.832,29.008l360.512,227.104L68.832,483.216V29.008z"></path>
      </g>
    </g>
    <g></g>
    <g></g>
    <g></g>
    <g></g>
    <g></g>
    <g></g>
    <g></g>
    <g></g>
    <g></g>
    <g></g>
    <g></g>
    <g></g>
    <g></g>
    <g></g>
    <g></g>
  </symbol>
  <symbol xmlns="http://www.w3.org/2000/svg" viewBox="0 0 18 18" id="button-1-settings">
    <path d="M16.135,7.784 C14.832,7.458 14.214,5.966 14.905,4.815 C15.227,4.279 15.13,3.817 14.811,3.499 L14.501,3.189 C14.183,2.871 13.721,2.774 13.185,3.095 C12.033,3.786 10.541,3.168 10.216,1.865 C10.065,1.258 9.669,1 9.219,1 L8.781,1 C8.331,1 7.936,1.258 7.784,1.865 C7.458,3.168 5.966,3.786 4.815,3.095 C4.279,2.773 3.816,2.87 3.498,3.188 L3.188,3.498 C2.87,3.816 2.773,4.279 3.095,4.815 C3.786,5.967 3.168,7.459 1.865,7.784 C1.26,7.935 1,8.33 1,8.781 L1,9.219 C1,9.669 1.258,10.064 1.865,10.216 C3.168,10.542 3.786,12.034 3.095,13.185 C2.773,13.721 2.87,14.183 3.189,14.501 L3.499,14.811 C3.818,15.13 4.281,15.226 4.815,14.905 C5.967,14.214 7.459,14.832 7.784,16.135 C7.935,16.742 8.331,17 8.781,17 L9.219,17 C9.669,17 10.064,16.742 10.216,16.135 C10.542,14.832 12.034,14.214 13.185,14.905 C13.72,15.226 14.182,15.13 14.501,14.811 L14.811,14.501 C15.129,14.183 15.226,13.72 14.905,13.185 C14.214,12.033 14.832,10.541 16.135,10.216 C16.742,10.065 17,9.669 17,9.219 L17,8.781 C17,8.33 16.74,7.935 16.135,7.784 L16.135,7.784 Z M9,12 C7.343,12 6,10.657 6,9 C6,7.343 7.343,6 9,6 C10.657,6 12,7.343 12,9 C12,10.657 10.657,12 9,12 L9,12 Z"></path>
  </symbol>
  <symbol xmlns="http://www.w3.org/2000/svg" version="1.1" xmlns:xlink="http://www.w3.org/1999/xlink" xmlnsSvgjs="http://svgjs.com/svgjs" x="0" y="0" xml:space="preserve" viewBox="0 0 512 512" id="button-2-play">
    <g>
      <g xmlns="http://www.w3.org/2000/svg" fill-rule="evenodd">
        <path d="m440.589844 206.675781h-341.171875l327.699219-94.929687c2.546874-.738282 4.695312-2.460938 5.976562-4.78125 1.28125-2.324219 1.585938-5.058594.847656-7.605469l-17.148437-59.199219c-6.851563-23.644531-28.867188-40.160156-53.539063-40.160156-5.199218 0-10.378906.738281-15.402344 2.191406l-307.675781 89.128906c-14.230469 4.121094-26.023437 13.582032-33.214843 26.632813-7.1875 13.050781-8.875 28.078125-4.753907 42.304687l16.753907 57.835938v238.253906c0 30.6875 24.964843 55.652344 55.648437 55.652344h120.164063c5.523437 0 10-4.476562 10-10s-4.476563-10-10-10h-120.160157c-19.660156 0-35.652343-15.992188-35.652343-35.652344v-136.085937h51.230468.023438.019531 78.3125.023437.023438 78.3125.023438.023437 78.3125.023437.019532 105.28125v136.085937c0 19.660156-15.992188 35.652344-35.652344 35.652344h-120.164062c-5.519532 0-10 4.476562-10 10s4.480468 10 10 10h120.164062c30.6875 0 55.652344-24.964844 55.652344-55.652344v-239.671875c0-5.523437-4.476563-10-10-10zm-176.332032 93.585938 42.488282-73.585938h55.261718l-42.484374 73.585938zm-78.359374 0 42.488281-73.585938h55.261719l-42.484376 73.585938zm-78.355469 0 42.484375-73.585938h55.265625l-42.488281 73.585938zm37.179687-129.457031-71.148437-68.335938 53.308593-15.441406c.375.546875.8125 1.0625 1.3125 1.542968l71.148438 68.335938-53.308594 15.441406c-.375-.546875-.816406-1.066406-1.3125-1.542968zm134-125.839844 71.148438 68.335937-53.308594 15.441407c-.375-.546876-.8125-1.066407-1.3125-1.542969l-71.148438-68.335938 53.308594-15.441406c.375.546875.8125 1.0625 1.3125 1.542969zm-75.265625 21.804687 71.148438 68.332031-53.308594 15.445313c-.375-.546875-.8125-1.066406-1.3125-1.542969l-71.148437-68.335937 53.308593-15.441407c.378907.542969.816407 1.0625 1.3125 1.542969zm149.960938-45.367187c3.210937-.929688 6.519531-1.402344 9.835937-1.402344 15.824219 0 29.9375 10.578125 34.328125 25.726562l14.367188 49.589844-40.121094 11.621094c-.378906-.546875-.816406-1.0625-1.316406-1.542969l-71.144531-68.332031zm-328.9375 106.199218c4.609375-8.371093 12.160156-14.433593 21.261719-17.070312l5.875-1.703125c.378906.546875.816406 1.066406 1.3125 1.542969l71.148437 68.335937-88.292969 25.578125-14.367187-49.589844c-2.636719-9.097656-1.546875-18.71875 3.0625-27.09375zm14.480469 99.074219h87.972656l-42.484375 73.585938h-45.488281zm303.65625 73.585938 42.484374-73.585938h45.488282v73.585938zm0 0" fill="currentColor" data-original="#000000"></path>
        <path d="m303.921875 405.113281c0-3.574219-1.90625-6.875-5-8.660156l-87.855469-50.722656c-3.09375-1.785157-6.90625-1.785157-10 0-3.09375 1.785156-5 5.085937-5 8.660156v101.445313c0 3.570312 1.90625 6.871093 5 8.65625 1.546875.894531 3.273438 1.34375 5 1.34375 1.726563 0 3.453125-.449219 5-1.34375l87.855469-50.71875c3.09375-1.785157 5-5.085938 5-8.660157zm-87.855469 33.402344v-66.804687l57.855469 33.402343zm0 0" fill="currentColor" data-original="#000000"></path>
        <path d="m234.773438 492c-5.507813 0-10 4.492188-10 10s4.492187 10 10 10c5.511718 0 10-4.492188 10-10s-4.488282-10-10-10zm0 0" fill="currentColor" data-original="#000000"></path>
      </g>
    </g>
  </symbol>
  <symbol xmlns="http://www.w3.org/2000/svg" version="1.1" xmlns:xlink="http://www.w3.org/1999/xlink" xmlnsSvgjs="http://svgjs.com/svgjs" x="0" y="0" xml:space="preserve" viewBox="0 0 485 485" id="button-3-play">
    <g>
      <g xmlns="http://www.w3.org/2000/svg">
        <path d="M413.974,71.026C368.171,25.225,307.274,0,242.5,0S116.829,25.225,71.026,71.026C25.225,116.829,0,177.726,0,242.5   s25.225,125.671,71.026,171.474C116.829,459.775,177.726,485,242.5,485s125.671-25.225,171.474-71.026   C459.775,368.171,485,307.274,485,242.5S459.775,116.829,413.974,71.026z M242.5,455C125.327,455,30,359.673,30,242.5   S125.327,30,242.5,30S455,125.327,455,242.5S359.673,455,242.5,455z" fill="currentColor" data-original="#000000"></path>
        <polygon points="181.062,336.575 343.938,242.5 181.062,148.425  " fill="currentColor" data-original="#000000"></polygon>
      </g>
      <g xmlns="http://www.w3.org/2000/svg"></g>
      <g xmlns="http://www.w3.org/2000/svg"></g>
      <g xmlns="http://www.w3.org/2000/svg"></g>
      <g xmlns="http://www.w3.org/2000/svg"></g>
      <g xmlns="http://www.w3.org/2000/svg"></g>
      <g xmlns="http://www.w3.org/2000/svg"></g>
      <g xmlns="http://www.w3.org/2000/svg"></g>
      <g xmlns="http://www.w3.org/2000/svg"></g>
      <g xmlns="http://www.w3.org/2000/svg"></g>
      <g xmlns="http://www.w3.org/2000/svg"></g>
      <g xmlns="http://www.w3.org/2000/svg"></g>
      <g xmlns="http://www.w3.org/2000/svg"></g>
      <g xmlns="http://www.w3.org/2000/svg"></g>
      <g xmlns="http://www.w3.org/2000/svg"></g>
      <g xmlns="http://www.w3.org/2000/svg"></g>
    </g>
  </symbol>
  <symbol version="1.1" id="button-4-play" xmlns="http://www.w3.org/2000/svg" xmlns:xlink="http://www.w3.org/1999/xlink" x="0px" y="0px" xml:space="preserve" viewBox="0 0 60 60">
    <g>
      <path d="M45.563,29.174l-22-15c-0.307-0.208-0.703-0.231-1.031-0.058C22.205,14.289,22,14.629,22,15v30
		c0,0.371,0.205,0.711,0.533,0.884C22.679,45.962,22.84,46,23,46c0.197,0,0.394-0.059,0.563-0.174l22-15
		C45.836,30.64,46,30.331,46,30S45.836,29.36,45.563,29.174z M24,43.107V16.893L43.225,30L24,43.107z"></path>
      <path d="M30,0C13.458,0,0,13.458,0,30s13.458,30,30,30s30-13.458,30-30S46.542,0,30,0z M30,58C14.561,58,2,45.439,2,30
		S14.561,2,30,2s28,12.561,28,28S45.439,58,30,58z"></path>
    </g>
    <g></g>
    <g></g>
    <g></g>
    <g></g>
    <g></g>
    <g></g>
    <g></g>
    <g></g>
    <g></g>
    <g></g>
    <g></g>
    <g></g>
    <g></g>
    <g></g>
    <g></g>
  </symbol>
  <symbol xmlns="http://www.w3.org/2000/svg" version="1.1" xmlns:xlink="http://www.w3.org/1999/xlink" xmlnsSvgjs="http://svgjs.com/svgjs" x="0" y="0" xml:space="preserve" viewBox="0 0 332.804 332.804" id="button-5-play">
    <g>
      <g xmlns="http://www.w3.org/2000/svg">
        <g>
          <g>
            <path d="M330.804,171.002c-3.6-6.4-12-8.8-18.8-4.8l-45.6,26.4l-11.6,6.8v63.2l10.8,6.4c0.4,0,0.4,0.4,0.8,0.4l44.8,26     c2,1.6,4.8,2.4,7.6,2.4c7.6,0,13.6-6,13.6-13.6v-53.6l0.4-52.8C332.804,175.402,332.404,173.002,330.804,171.002z" fill="currentColor" data-original="#000000"></path>
            <path d="M64.404,150.602c35.6,0,64.4-28.8,64.4-64.4c0-35.6-28.8-64.4-64.4-64.4s-64.4,28.8-64.4,64.4     C-0.396,121.802,28.804,150.602,64.404,150.602z M64.404,59.802c14.8,0,26.4,12,26.4,26.4c0,14.8-12,26.4-26.4,26.4     c-14.4,0-26.4-12-26.4-26.4C37.604,71.402,49.604,59.802,64.404,59.802z" fill="currentColor" data-original="#000000"></path>
            <path d="M227.604,154.202c-10.4,5.2-22,8.4-34.4,8.4c-15.2,0-29.6-4.4-41.6-12.4h-45.6c-12,8-26.4,12.4-41.6,12.4     c-12.4,0-24-2.8-34.4-8.4c-9.2,5.2-15.6,15.6-15.6,26.8v97.6c0,18,14.8,32.4,32.4,32.4h164.4c18,0,32.4-14.8,32.4-32.4v-97.6     C243.204,169.802,236.804,159.402,227.604,154.202z" fill="currentColor" data-original="#000000"></path>
            <path d="M193.204,150.602c35.6,0,64.4-28.8,64.4-64.4c0-35.6-28.8-64.4-64.4-64.4c-35.6,0-64.4,28.8-64.4,64.4     C128.804,121.802,157.604,150.602,193.204,150.602z M193.204,59.802c14.8,0,26.4,12,26.4,26.4c0,14.8-12,26.4-26.4,26.4     c-14.4,0-26.4-12-26.4-26.4C166.804,71.402,178.404,59.802,193.204,59.802z" fill="currentColor" data-original="#000000"></path>
          </g>
        </g>
      </g>
      <g xmlns="http://www.w3.org/2000/svg"></g>
      <g xmlns="http://www.w3.org/2000/svg"></g>
      <g xmlns="http://www.w3.org/2000/svg"></g>
      <g xmlns="http://www.w3.org/2000/svg"></g>
      <g xmlns="http://www.w3.org/2000/svg"></g>
      <g xmlns="http://www.w3.org/2000/svg"></g>
      <g xmlns="http://www.w3.org/2000/svg"></g>
      <g xmlns="http://www.w3.org/2000/svg"></g>
      <g xmlns="http://www.w3.org/2000/svg"></g>
      <g xmlns="http://www.w3.org/2000/svg"></g>
      <g xmlns="http://www.w3.org/2000/svg"></g>
      <g xmlns="http://www.w3.org/2000/svg"></g>
      <g xmlns="http://www.w3.org/2000/svg"></g>
      <g xmlns="http://www.w3.org/2000/svg"></g>
      <g xmlns="http://www.w3.org/2000/svg"></g>
    </g>
  </symbol>
  <symbol version="1.1" id="button-6-play" xmlns="http://www.w3.org/2000/svg" xmlns:xlink="http://www.w3.org/1999/xlink" x="0px" y="0px" xml:space="preserve" viewBox="0 0 191.255 191.255">
    <path d="M162.929,66.612c-2.814-1.754-6.514-0.896-8.267,1.917s-0.895,6.513,1.917,8.266c6.544,4.081,10.45,11.121,10.45,18.833
	s-3.906,14.752-10.45,18.833l-98.417,61.365c-6.943,4.329-15.359,4.542-22.512,0.573c-7.154-3.97-11.425-11.225-11.425-19.406
	V34.262c0-8.181,4.271-15.436,11.425-19.406c7.153-3.969,15.569-3.756,22.512,0.573l57.292,35.723
	c2.813,1.752,6.513,0.895,8.267-1.917c1.753-2.812,0.895-6.513-1.917-8.266L64.512,5.247c-10.696-6.669-23.661-7-34.685-0.883
	C18.806,10.48,12.226,21.657,12.226,34.262v122.73c0,12.605,6.58,23.782,17.602,29.898c5.25,2.913,10.939,4.364,16.616,4.364
	c6.241,0,12.467-1.754,18.068-5.247l98.417-61.365c10.082-6.287,16.101-17.133,16.101-29.015S173.011,72.899,162.929,66.612z"></path>
    <g></g>
    <g></g>
    <g></g>
    <g></g>
    <g></g>
    <g></g>
    <g></g>
    <g></g>
    <g></g>
    <g></g>
    <g></g>
    <g></g>
    <g></g>
    <g></g>
    <g></g>
  </symbol>
  <symbol xmlns="http://www.w3.org/2000/svg" version="1.1" xmlns:xlink="http://www.w3.org/1999/xlink" xmlnsSvgjs="http://svgjs.com/svgjs" x="0" y="0" xml:space="preserve" viewBox="0 0 512 511" id="button-7-play">
    <g>
      <path xmlns="http://www.w3.org/2000/svg" d="m257 471.5h-177c-44.113281 0-80-35.886719-80-80v-311c0-44.113281 35.886719-80 80-80h352c44.113281 0 80 35.886719 80 80v197c0 11.046875-8.953125 20-20 20s-20-8.953125-20-20v-197c0-22.054688-17.945312-40-40-40h-352c-22.054688 0-40 17.945312-40 40v311c0 22.054688 17.945312 40 40 40h177c11.046875 0 20 8.953125 20 20s-8.953125 20-20 20zm-140-100c0-11.046875-8.953125-20-20-20s-20 8.953125-20 20 8.953125 20 20 20 20-8.953125 20-20zm80 0c0-11.046875-8.953125-20-20-20s-20 8.953125-20 20 8.953125 20 20 20 20-8.953125 20-20zm80 0c0-11.046875-8.953125-20-20-20s-20 8.953125-20 20 8.953125 20 20 20 20-8.953125 20-20zm-160-271c0-11.046875-8.953125-20-20-20s-20 8.953125-20 20 8.953125 20 20 20 20-8.953125 20-20zm80 0c0-11.046875-8.953125-20-20-20s-20 8.953125-20 20 8.953125 20 20 20 20-8.953125 20-20zm80 0c0-11.046875-8.953125-20-20-20s-20 8.953125-20 20 8.953125 20 20 20 20-8.953125 20-20zm80 0c0-11.046875-8.953125-20-20-20s-20 8.953125-20 20 8.953125 20 20 20 20-8.953125 20-20zm80 0c0-11.046875-8.953125-20-20-20s-20 8.953125-20 20 8.953125 20 20 20 20-8.953125 20-20zm-54.484375 385.132812 106.625-61.371093c13.6875-7.878907 21.859375-21.996094 21.859375-37.761719s-8.171875-29.882812-21.859375-37.761719l-106.625-61.371093c-13.699219-7.886719-30.046875-7.871094-43.734375.042968-13.636719 7.886719-21.78125 21.988282-21.78125 37.71875v122.742188c0 15.730468 8.144531 29.832031 21.78125 37.71875 6.855469 3.964844 14.378906 5.945312 21.90625 5.945312 7.496094 0 14.992188-1.964844 21.828125-5.902344zm-19.953125-163.597656 106.625 61.371094c1.203125.691406 1.8125 1.734375 1.8125 3.09375 0 1.363281-.609375 2.402344-1.8125 3.09375l-106.625 61.371094c-1.25.71875-2.511719.71875-3.757812-.003906-1.195313-.691407-1.804688-1.730469-1.804688-3.089844v-122.742188c0-1.359375.605469-2.398437 1.804688-3.089844.625-.359374 1.253906-.542968 1.882812-.542968.625 0 1.253906.179687 1.875.539062zm0 0" fill="currentColor" data-original="#000000"></path>
    </g>
  </symbol>
  <symbol fill="none" xmlns="http://www.w3.org/2000/svg" viewBox="0 0 15 15" id="button-8-play">
    <path d="M4.5 12.5V2.5L11.5 7.5L4.5 12.5Z" stroke="black" stroke-linejoin="round"></path>
  </symbol>
  <symbol version="1.1" id="button-9-play" xmlns="http://www.w3.org/2000/svg" xmlns:xlink="http://www.w3.org/1999/xlink" x="0px" y="0px" xml:space="preserve" viewBox="0 0 502 502">
    <g>
      <g>
        <path d="M251,502c-67.045,0-130.076-26.108-177.483-73.516C26.108,381.076,0,318.044,0,251S26.108,120.924,73.517,73.516
			C120.924,26.108,183.955,0,251,0s130.076,26.108,177.483,73.516C475.892,120.924,502,183.956,502,251
			s-26.108,130.076-73.517,177.484C381.076,475.892,318.045,502,251,502z M251,20C123.626,20,20,123.626,20,251s103.626,231,231,231
			s231-103.626,231-231S378.374,20,251,20z"></path>
      </g>
      <g>
        <g>
          <path d="M194.134,401c-5.627,0-11.23-1.394-16.204-4.03c-11.344-6.015-18.391-17.728-18.391-30.567V135.597
				c0-12.839,7.047-24.552,18.39-30.566c11.343-6.013,24.992-5.276,35.62,1.93L383.78,222.363
				c9.508,6.445,15.184,17.151,15.184,28.637c0,11.485-5.676,22.191-15.184,28.637L213.549,395.04
				C207.799,398.939,201.085,401,194.134,401z M194.138,120.995c-2.341,0-4.688,0.564-6.84,1.706
				c-4.786,2.538-7.759,7.479-7.759,12.896v230.806c0,5.417,2.973,10.359,7.759,12.896c2.099,1.112,4.463,1.701,6.836,1.701
				c2.934,0,5.766-0.869,8.191-2.514l170.232-115.403c4.011-2.72,6.406-7.236,6.406-12.083s-2.395-9.363-6.406-12.082
				L202.326,123.515C199.858,121.842,197.004,120.995,194.138,120.995z"></path>
        </g>
      </g>
      <g>
        <path d="M286.012,63.038c-0.574,0-1.156-0.049-1.741-0.152c-21.184-3.718-43.425-3.829-64.641-0.324
			c-5.453,0.903-10.597-2.787-11.496-8.236c-0.9-5.449,2.787-10.596,8.236-11.496c23.431-3.871,47.965-3.75,71.359,0.358
			c5.439,0.955,9.075,6.139,8.12,11.579C294.997,59.621,290.776,63.038,286.012,63.038z"></path>
      </g>
      <g>
        <path d="M439.844,192.001c-4.08,0-7.911-2.516-9.394-6.57c-16.37-44.791-48.719-81.657-91.086-103.808
			c-4.895-2.559-6.788-8.601-4.229-13.495c2.56-4.895,8.601-6.788,13.495-4.229c46.792,24.464,82.521,65.186,100.605,114.666
			c1.896,5.187-0.772,10.929-5.96,12.825C442.143,191.804,440.983,192.001,439.844,192.001z"></path>
      </g>
    </g>
    <g></g>
    <g></g>
    <g></g>
    <g></g>
    <g></g>
    <g></g>
    <g></g>
    <g></g>
    <g></g>
    <g></g>
    <g></g>
    <g></g>
    <g></g>
    <g></g>
    <g></g>
  </symbol>
  <symbol xmlns="http://www.w3.org/2000/svg" version="1.1" xmlns:xlink="http://www.w3.org/1999/xlink" xmlnsSvgjs="http://svgjs.com/svgjs" x="0" y="0" xml:space="preserve" viewBox="0 0 48 48" id="button-10-play">
    <g>
      <g xmlns="http://www.w3.org/2000/svg" id="Play">
        <path d="m37.324 20.026-22-12.412a4.685 4.685 0 0 0 -4.711.036 4.528 4.528 0 0 0 -2.28 3.938v24.824a4.528 4.528 0 0 0 2.28 3.938 4.687 4.687 0 0 0 4.711.036l22-12.412a4.543 4.543 0 0 0 0-7.948z" fill="currentColor" data-original="#000000"></path>
      </g>
    </g>
  </symbol>
  <symbol xmlns="http://www.w3.org/2000/svg" viewBox="0 0 18 18" id="plyr-pip">
    <polygon points="13.293 3.293 7.022 9.564 8.436 10.978 14.707 4.707 17 7 17 1 11 1"></polygon>
    <path d="M13,15 L3,15 L3,5 L8,5 L8,3 L2,3 C1.448,3 1,3.448 1,4 L1,16 C1,16.552 1.448,17 2,17 L14,17 C14.552,17 15,16.552 15,16 L15,10 L13,10 L13,15 L13,15 Z"></path>
  </symbol>
</svg>
